<svg width="178" height="31" viewBox="0 0 178 31" fill="none" xmlns="http://www.w3.org/2000/svg">
<path d="M11.1445 2.13428V2.33534C11.109 3.18693 10.5886 3.91432 9.85528 4.25732C9.60098 4.3756 9.31712 4.44656 9.01552 4.4643H8.81445C8.30587 4.44065 7.83868 4.24549 7.47794 3.93798C7.01666 3.54767 6.72098 2.97994 6.69141 2.33534V2.13428C6.69732 1.95686 6.72689 1.78536 6.7742 1.62569C6.83925 1.40097 6.93387 1.19399 7.06397 1.00474C7.44837 0.431109 8.08706 0.0467131 8.82036 0.0112305H9.02143C9.07466 0.0112305 9.12788 0.0171445 9.17519 0.0230583C9.20476 0.0289721 9.22842 0.0289718 9.25798 0.0348855C10.1037 0.164989 10.7897 0.76228 11.0439 1.56064C11.0972 1.73805 11.1327 1.93321 11.1445 2.13428Z" fill="#775AC9"/>
<path d="M33.2503 13.3704C33.1439 12.6076 32.9783 11.8683 32.7654 11.141C32.6826 10.8689 32.5998 10.6028 32.4993 10.3367C32.3278 9.85175 32.1267 9.37865 31.9079 8.91146C31.7482 8.56846 31.5708 8.23138 31.3875 7.90612C31.3224 7.78784 31.2515 7.67548 31.1864 7.55721C31.009 7.26152 30.8198 6.96583 30.6187 6.68197C30.4413 6.43359 30.2639 6.18521 30.0746 5.94866C29.7257 5.50513 29.3531 5.08525 28.9628 4.68311C28.886 4.60623 28.815 4.53527 28.7381 4.45839C28.679 4.39925 28.6198 4.34011 28.5548 4.28689C28.0166 3.7783 27.443 3.3052 26.8339 2.8735C26.7984 2.84984 26.7688 2.82619 26.7333 2.80253C26.4495 2.60146 26.1597 2.41222 25.8581 2.23481C25.5506 2.05148 25.2312 1.87407 24.9119 1.70848C24.7759 1.63752 24.6399 1.57247 24.5039 1.50742C23.948 1.2413 23.3743 1.01066 22.7829 0.815504C22.6174 0.756366 22.4459 0.703142 22.2744 0.655832C21.5529 0.442936 20.8077 0.277351 20.0449 0.170903C19.353 0.0703685 18.6492 0.0171442 17.9337 0.0112305C17.8982 0.0112305 17.8568 0.0112305 17.8213 0.0112305C17.7799 0.0112305 17.7444 0.0112305 17.703 0.0112305C16.5735 0.0703682 15.6628 0.969262 15.5918 2.09288V2.37674C15.5918 2.38857 15.5918 2.40631 15.5977 2.41814C15.6864 3.52993 16.5971 4.41108 17.7208 4.45839H17.9218C17.9159 4.45839 17.9159 4.45839 17.91 4.45839C18.6433 4.4643 19.3589 4.54118 20.0508 4.6772C20.1513 4.70085 20.2518 4.71859 20.3524 4.74225C21.0206 4.89601 21.6652 5.1089 22.2803 5.38094C22.3453 5.41051 22.4163 5.44007 22.4813 5.46964C23.1614 5.78307 23.806 6.16155 24.4033 6.60509C24.4388 6.62874 24.4743 6.65831 24.5098 6.68197C25.0952 7.11959 25.6393 7.62226 26.1242 8.16632C26.3371 8.40287 26.5441 8.65125 26.7333 8.91146C27.0704 9.36091 27.372 9.83401 27.6441 10.3308C27.786 10.591 27.9161 10.863 28.0344 11.135C28.3419 11.8447 28.5784 12.5898 28.7381 13.3645C28.886 14.086 28.9628 14.8311 28.9628 15.594C28.9628 16.3569 28.886 17.102 28.7381 17.8235C28.5784 18.5982 28.3419 19.3434 28.0344 20.053C27.9161 20.325 27.786 20.5971 27.6441 20.8573C27.3779 21.354 27.0704 21.8331 26.7333 22.2825C26.5382 22.5368 26.3371 22.7852 26.1242 23.0276C25.6334 23.5717 25.0952 24.0685 24.5098 24.512C24.4743 24.5356 24.4388 24.5652 24.4033 24.5889C23.806 25.0265 23.1614 25.4109 22.4813 25.7243C22.4163 25.7539 22.3512 25.7835 22.2803 25.813C21.6652 26.0791 21.0206 26.298 20.3524 26.4517C20.2518 26.4754 20.1513 26.499 20.0508 26.5168V26.5404C19.9976 26.5404 19.9384 26.5404 19.8852 26.5463C19.8852 26.5463 19.8852 26.5463 19.8793 26.5463C19.7433 26.57 19.6072 26.5936 19.4712 26.6173H19.4653C19.347 26.6469 19.2406 26.6883 19.1282 26.7356C18.3949 27.0667 17.8745 27.7823 17.8213 28.628V28.9118C17.8213 28.9296 17.8213 28.9473 17.8272 28.9651C17.9277 30.1064 18.8799 30.9994 20.0449 30.9994H20.0567C20.8196 30.893 21.5529 30.7629 22.2744 30.544C22.4459 30.4908 22.6114 30.4376 22.7829 30.3844C23.3743 30.1892 23.948 29.9527 24.5039 29.6925C24.6399 29.6274 24.7759 29.5624 24.9119 29.4914C25.2312 29.3258 25.5506 29.1543 25.8581 28.9651C26.1538 28.7877 26.4495 28.5984 26.7333 28.3973C26.7688 28.3737 26.7984 28.35 26.8339 28.3264C27.443 27.8947 28.0166 27.4216 28.5548 26.913C28.6139 26.8538 28.6731 26.8006 28.7381 26.7415C28.815 26.6646 28.886 26.5936 28.9628 26.5168C29.3531 26.1146 29.7257 25.6947 30.0746 25.2512C30.2639 25.0147 30.4472 24.7663 30.6187 24.5179C30.8198 24.234 31.009 23.9443 31.1864 23.6427C31.2574 23.5303 31.3224 23.412 31.3875 23.2938C31.5767 22.9685 31.7482 22.6314 31.9079 22.2884C32.1267 21.8271 32.3278 21.354 32.4993 20.8632C32.5939 20.5971 32.6826 20.331 32.7654 20.0589C32.9783 19.3374 33.1439 18.5923 33.2503 17.8294C33.3568 17.102 33.41 16.3569 33.41 15.5999C33.41 14.843 33.3568 14.0978 33.2503 13.3704Z" fill="#775AC9"/>
<path d="M15.5978 15.5938C15.5978 15.5938 15.5919 22.0753 15.5978 22.1758V22.3769C15.5682 23.0215 15.2666 23.5892 14.8112 23.9795C14.5156 24.2279 14.1548 24.3994 13.7586 24.4704C13.664 24.4881 13.5694 24.4999 13.4688 24.4999H13.2677C12.6231 24.4704 12.0495 24.1688 11.6592 23.7016C11.3517 23.3408 11.1624 22.8795 11.1388 22.371V21.5253C11.1447 21.5194 11.1565 21.5194 11.1624 21.5135C11.1565 21.5076 11.1447 21.4957 11.1388 21.4898V15.5997C11.1388 15.304 11.1329 15.0083 11.1151 14.7185V14.7126C11.121 14.6357 11.121 14.5589 11.121 14.482C11.121 14.2277 11.0915 13.9852 11.0383 13.7487C11.0087 13.6186 10.9732 13.4944 10.9259 13.3702C10.7012 12.7374 10.2872 12.1874 9.75497 11.7971C9.50068 11.6079 9.2109 11.4541 8.90338 11.3477C8.70232 11.2767 8.48942 11.2235 8.27061 11.1939C8.11094 11.1703 7.95127 11.1584 7.78568 11.1584C7.72063 11.1584 7.65558 11.1584 7.59053 11.1644C7.27118 11.1821 6.96367 11.2472 6.67389 11.3477C6.461 11.4246 6.26584 11.5192 6.0766 11.6315C5.42017 12.0278 4.91159 12.6369 4.65138 13.3702H4.63364C4.62773 13.4057 4.62181 13.4412 4.6159 13.4826C4.51536 13.796 4.46214 14.1331 4.46214 14.4879C4.46214 14.5825 4.46805 14.6771 4.47397 14.7718C4.45623 15.0438 4.45031 15.3217 4.45031 15.5997V22.3828C4.43849 22.6962 4.35569 22.9919 4.2315 23.258C4.18419 23.3586 4.12506 23.4591 4.06 23.5478C4.02452 23.601 3.98313 23.6483 3.94764 23.7016C3.56916 24.1569 3.01327 24.4644 2.38641 24.5058C2.36866 24.5058 2.35092 24.5058 2.33318 24.5117H2.13211C1.58805 24.4881 1.0972 24.2693 0.724636 23.9263C0.304758 23.5419 0.0327246 22.9978 0.00906953 22.3887V15.5938C-0.0204993 15.3691 0.0327243 15.1443 0.0208968 14.9196C0.0386381 14.3992 0.0800345 13.8788 0.145086 13.3702C0.186482 13.0272 0.239707 12.6901 0.304758 12.353C0.423034 11.9332 0.576791 11.531 0.760118 11.1466C0.801515 11.0579 0.842911 10.9751 0.890222 10.8864C1.24505 10.2004 1.70041 9.57947 2.23856 9.02949C2.2563 9.01175 2.26813 8.99401 2.28587 8.98218C2.30953 8.95852 2.32727 8.94078 2.35092 8.91713C2.85951 8.42037 3.43906 7.98867 4.06592 7.64567C4.19602 7.5747 4.33204 7.50374 4.46214 7.4446C4.49762 7.42686 4.53311 7.40912 4.56859 7.39729C5.09491 7.15482 5.65081 6.9715 6.23036 6.85322C6.38412 6.82365 6.53196 6.79408 6.68572 6.77634C7.05237 6.72312 7.41903 6.69946 7.79751 6.69946C7.82116 6.69946 7.83891 6.69946 7.85665 6.69946C8.17008 6.69946 8.48351 6.72312 8.78511 6.7586C8.82651 6.76451 8.8679 6.77043 8.90338 6.77634C9.46519 6.85322 10.0033 6.99515 10.5178 7.19031C10.7248 7.26719 10.9318 7.35589 11.127 7.45051C11.3458 7.55696 11.5646 7.66932 11.7716 7.79943C12.0613 7.97092 12.3452 8.16608 12.6054 8.37306C12.8242 8.54456 13.0371 8.7338 13.2382 8.92896C13.2796 8.96444 13.3151 9.00584 13.3505 9.04132C13.6462 9.34292 13.9124 9.66818 14.1607 10.0112C14.415 10.3719 14.6397 10.7563 14.829 11.1584C14.9591 11.4364 15.0774 11.7262 15.1779 12.0159C15.2725 12.3057 15.3553 12.6014 15.4144 12.903C15.4322 13.0627 15.4499 13.2224 15.4677 13.382C15.515 13.8847 15.5505 14.3992 15.5682 14.9137C15.5919 15.1266 15.5978 15.3631 15.5978 15.5938Z" fill="#775AC9"/>
<path d="M15.5977 28.6638V28.8649C15.5622 29.6159 15.16 30.2724 14.5627 30.6508C14.2434 30.8519 13.8708 30.9761 13.4687 30.9938H13.2676C12.9601 30.982 12.6644 30.9051 12.3983 30.775C11.8897 30.5267 11.4876 30.0949 11.2806 29.5627C11.1978 29.3439 11.1505 29.1133 11.1387 28.8708V28.7703V28.6697C11.1623 28.1434 11.3693 27.6585 11.7005 27.2859C11.9252 27.0375 12.2032 26.8365 12.5166 26.7064C12.7472 26.6117 13.0015 26.5526 13.2676 26.5408H13.4687C14.0009 26.5644 14.48 26.7714 14.8525 27.1026C15.2665 27.4692 15.5385 27.9956 15.5858 28.581C15.5917 28.6106 15.5917 28.6342 15.5977 28.6638Z" fill="#775AC9"/>
<path d="M87.4804 14.0748L97.2736 0H93.2581C92.3237 0 91.6555 0.402137 91.2534 1.20641L84.9434 10.3787L87.4804 14.0748Z" fill="black"/>
<path d="M83.6128 11.7032L80.4785 6.93669C80.3839 6.79476 80.2242 6.70605 80.0468 6.70605H77.6222H76.1142C75.7061 6.70605 75.4637 7.1555 75.6825 7.4985L80.6678 15.3402L74.8486 24.5065H80.2656L83.5419 18.8884L86.688 24.5065H89.5858H92.04L83.6128 11.7032Z" fill="black"/>
<path d="M70.1118 18.9184H73.323C72.8499 20.7162 71.951 22.0882 70.6263 23.0285C69.3016 24.016 67.628 24.5069 65.6173 24.5069C63.1749 24.5069 61.2707 23.7144 59.9046 22.1296C58.5326 20.5861 57.8525 18.3861 57.8525 15.518C57.8525 12.7799 58.5149 10.6391 59.8455 9.0956C61.2175 7.51071 63.1217 6.71826 65.5582 6.71826C68.1248 6.71826 70.1177 7.48705 71.5311 9.03055C72.9031 10.6154 73.5832 12.8154 73.5832 15.6421C73.5832 15.8136 73.5832 15.9615 73.5832 16.0916C73.5832 16.2217 73.5832 16.3045 73.5832 16.3459C73.5832 16.5588 73.5595 16.7125 73.5181 16.7953H62.4121C62.4535 18.12 62.7728 19.1076 63.376 19.7463C63.9319 20.4323 64.7657 20.7753 65.8775 20.7753C66.6049 20.7753 67.2259 20.6275 67.7404 20.3259C67.8705 20.2845 67.9887 20.2076 68.0952 20.1011C68.2016 19.9947 68.3199 19.8764 68.45 19.7463C68.4914 19.6162 68.6511 19.4447 68.929 19.2318C69.2011 19.0248 69.5973 18.9184 70.1118 18.9184ZM62.4061 13.9094H68.9527C68.864 12.7562 68.5683 11.8987 68.0538 11.3428C67.4979 10.7455 66.7055 10.4439 65.6765 10.4439C64.7362 10.4439 63.9615 10.7455 63.3642 11.3428C62.7669 11.9401 62.4475 12.7976 62.4061 13.9094Z" fill="black"/>
<path d="M107.439 0.00585938H109.633C110.236 0.00585938 110.751 0.230583 111.183 0.685943C111.614 1.13539 111.827 1.64397 111.827 2.20578V16.7951C111.827 19.8525 110.946 21.9164 109.178 22.9927C107.41 24.069 105.5 24.6072 103.43 24.6072C102.312 24.6072 101.212 24.4238 100.136 24.0572C99.0594 23.6905 98.196 23.0991 97.5514 22.283C96.3036 20.6922 95.6768 18.516 95.6768 15.7602C95.6768 13.0457 96.2977 10.8754 97.5514 9.23726C98.8406 7.55775 100.496 6.71799 102.525 6.71799C103.601 6.71799 104.547 6.9368 105.364 7.36259C106.227 7.87709 106.913 8.54535 107.427 9.36145V0.00585938H107.439ZM100.077 15.565C100.077 17.2859 100.402 18.5988 101.046 19.5036C101.691 20.4084 102.62 20.8578 103.82 20.8578C104.985 20.8578 105.884 20.4084 106.534 19.5036C107.138 18.5988 107.439 17.2859 107.439 15.565C107.439 14.0156 107.114 12.7914 106.469 11.8866C105.777 11.0232 104.855 10.5974 103.696 10.5974C102.578 10.5974 101.697 11.0469 101.046 11.9517C100.402 12.8092 100.077 14.0156 100.077 15.565Z" fill="black"/>
<path d="M126.292 18.9184H129.504C129.031 20.7162 128.132 22.0882 126.807 23.0285C125.482 24.016 123.809 24.5069 121.798 24.5069C119.356 24.5069 117.451 23.7144 116.085 22.1296C114.713 20.5861 114.033 18.3861 114.033 15.518C114.033 12.7799 114.696 10.6391 116.026 9.0956C117.398 7.51071 119.302 6.71826 121.739 6.71826C124.305 6.71826 126.298 7.48705 127.712 9.03055C129.084 10.6154 129.764 12.8154 129.764 15.6421C129.764 15.8136 129.764 15.9615 129.764 16.0916C129.764 16.2217 129.764 16.3045 129.764 16.3459C129.764 16.5588 129.74 16.7125 129.699 16.7953H118.593C118.634 18.12 118.953 19.1076 119.557 19.7463C120.113 20.4323 120.946 20.7753 122.058 20.7753C122.786 20.7753 123.407 20.6275 123.921 20.3259C124.051 20.2845 124.169 20.2076 124.276 20.1011C124.382 19.9947 124.501 19.8764 124.631 19.7463C124.672 19.6162 124.832 19.4447 125.11 19.2318C125.382 19.0248 125.778 18.9184 126.292 18.9184ZM118.587 13.9094H125.133C125.045 12.7562 124.749 11.8987 124.234 11.3428C123.679 10.7455 122.886 10.4439 121.857 10.4439C120.917 10.4439 120.142 10.7455 119.545 11.3428C118.948 11.9401 118.628 12.7976 118.587 13.9094Z" fill="black"/>
<path d="M147.126 24.501H142.614V14.3056V13.389C142.614 12.3423 142.294 11.5794 141.667 11.1004C141.035 10.6214 140.325 10.3789 139.544 10.3789C138.758 10.3789 138.06 10.6214 137.451 11.1004C136.842 11.5794 136.534 12.3423 136.534 13.389V24.501H131.957V14.3056C131.957 11.3428 132.732 9.36172 134.275 8.35638C135.825 7.35695 137.534 6.80697 139.408 6.72418C140.408 6.72418 141.39 6.83062 142.348 7.04943C143.306 7.26824 144.181 7.70586 144.961 8.35638C145.618 7.78865 146.387 7.38652 147.28 7.14405C148.173 6.9075 149.101 6.76557 150.059 6.71826C151.975 6.71826 153.743 7.22093 155.352 8.22036C156.966 9.2257 157.771 11.2482 157.771 14.2997V24.501H155.482C154.826 24.501 154.293 24.294 153.879 23.88C153.465 23.4661 153.258 22.9338 153.258 22.2774V13.389C153.258 12.3423 152.939 11.5794 152.312 11.1004C151.679 10.6214 150.97 10.3789 150.189 10.3789C149.403 10.3789 148.693 10.6214 148.066 11.1004C147.433 11.5794 147.12 12.3423 147.12 13.389V14.3056V24.501H147.126Z" fill="black"/>
<path d="M162.815 30.9943V27.3159H164.039C164.903 27.3159 165.577 27.109 166.074 26.7009C166.57 26.2929 166.665 25.1219 166.363 24.2171L159.982 6.73009H164.956L168.824 19.2495L172.248 8.26767C172.508 7.23276 173.194 6.71826 174.312 6.71826H177.41L170.432 27.1858C169.918 28.6051 169.267 29.6164 168.492 30.2196C167.718 30.7341 166.446 30.9943 164.684 30.9943C164.554 30.9943 164.406 30.9943 164.234 30.9943C164.063 30.9943 163.785 30.9943 163.785 30.9943C163.785 30.9943 162.945 30.9943 162.815 30.9943Z" fill="black"/>
<path d="M55.6463 15.5948C55.6463 15.5948 55.6404 22.0763 55.6463 22.1768V22.3779C55.6168 23.0225 55.3152 23.5902 54.8598 23.9805C54.5641 24.2289 54.2034 24.4004 53.8072 24.4713C53.7125 24.4891 53.6179 24.5009 53.5174 24.5009H53.3163C52.6717 24.4713 52.0981 24.1697 51.7078 23.7025C51.4003 23.3418 51.211 22.8805 51.1874 22.3719V21.5263C51.1933 21.5204 51.2051 21.5204 51.211 21.5144C51.2051 21.5085 51.1933 21.4967 51.1874 21.4908V15.6007C51.1874 15.305 51.1814 15.0093 51.1637 14.7195V14.7136C51.1696 14.6367 51.1696 14.5598 51.1696 14.483C51.1696 14.2287 51.14 13.9862 51.0868 13.7497C51.0573 13.6196 51.0218 13.4954 50.9745 13.3712C50.7497 12.7384 50.3358 12.1884 49.8035 11.7981C49.5492 11.6089 49.2595 11.4551 48.9519 11.3487C48.7509 11.2777 48.538 11.2245 48.3192 11.1949C48.1595 11.1713 47.9998 11.1594 47.8342 11.1594C47.7692 11.1594 47.7041 11.1594 47.6391 11.1653C47.3197 11.1831 47.0122 11.2481 46.7225 11.3487C46.5096 11.4255 46.3144 11.5202 46.1252 11.6325C45.4687 12.0287 44.9602 12.6379 44.6999 13.3712H44.6822C44.6763 13.4067 44.6704 13.4421 44.6645 13.4835C44.5639 13.797 44.5107 14.1341 44.5107 14.4889C44.5107 14.5835 44.5166 14.6781 44.5225 14.7727C44.5048 15.0448 44.4989 15.3227 44.4989 15.6007V22.3838C44.4871 22.6972 44.4043 22.9929 44.2801 23.259C44.2328 23.3595 44.1736 23.4601 44.1086 23.5488C44.0731 23.602 44.0317 23.6493 43.9962 23.7025C43.6177 24.1579 43.0618 24.4654 42.435 24.5068C42.4172 24.5068 42.3995 24.5068 42.3817 24.5127H42.1807C41.6366 24.4891 41.1458 24.2703 40.7732 23.9273C40.3533 23.5429 40.0813 22.9988 40.0576 22.3897V15.5948C40.0458 15.3759 40.0576 15.1512 40.0695 14.9206C40.0872 14.4002 40.1286 13.8798 40.1937 13.3712C40.235 13.0282 40.2883 12.6911 40.3533 12.354C40.4716 11.9341 40.6254 11.532 40.8087 11.1476C40.8501 11.0589 40.8915 10.9761 40.9388 10.8874C41.2936 10.2014 41.749 9.58045 42.2871 9.03047C42.3049 9.01273 42.3167 8.99498 42.3344 8.98316C42.3581 8.9595 42.3758 8.94176 42.3995 8.9181C42.9081 8.42135 43.4876 7.98964 44.1145 7.64664C44.2446 7.57568 44.3806 7.50471 44.5107 7.44557C44.5462 7.42783 44.5817 7.41009 44.6172 7.39826C45.1435 7.1558 45.6994 6.97247 46.2789 6.8542C46.4327 6.82463 46.5805 6.79506 46.7343 6.77732C47.1009 6.7241 47.4676 6.70044 47.8461 6.70044C47.8697 6.70044 47.8875 6.70044 47.9052 6.70044C48.2186 6.70044 48.5321 6.72409 48.8337 6.75958C48.8751 6.76549 48.9165 6.77141 48.9519 6.77732C49.5138 6.8542 50.0519 6.99613 50.5664 7.19128C50.7734 7.26816 50.9804 7.35687 51.1755 7.45149C51.3943 7.55794 51.6131 7.6703 51.8201 7.8004C52.1099 7.9719 52.3938 8.16706 52.654 8.37404C52.8728 8.54554 53.0857 8.73478 53.2867 8.92993C53.3281 8.96541 53.3636 9.00681 53.3991 9.04229C53.6948 9.3439 53.9609 9.66915 54.2093 10.0122C54.4636 10.3729 54.6883 10.7573 54.8776 11.1594C55.0077 11.4374 55.1259 11.7271 55.2265 12.0169C55.3211 12.3067 55.4039 12.6024 55.463 12.904C55.4808 13.0637 55.4985 13.2233 55.5162 13.383C55.5635 13.8857 55.599 14.4002 55.6168 14.9147C55.6463 15.1276 55.6463 15.3641 55.6463 15.5948Z" fill="black"/>
</svg>
