<svg width="20" height="20" viewBox="0 0 20 20" fill="none" xmlns="http://www.w3.org/2000/svg">
<path fill-rule="evenodd" clip-rule="evenodd" d="M0 10C0 5.28595 0 2.92893 1.46447 1.46447C2.92893 0 5.28595 0 10 0C14.714 0 17.0711 0 18.5355 1.46447C20 2.92893 20 5.28595 20 10C20 14.714 20 17.0711 18.5355 18.5355C17.0711 20 14.714 20 10 20C5.28595 20 2.92893 20 1.46447 18.5355C0 17.0711 0 14.714 0 10ZM15.75 10C15.75 10.4142 15.4142 10.75 15 10.75H9.81066L11.5303 12.4697C11.8232 12.7626 11.8232 13.2374 11.5303 13.5303C11.2374 13.8232 10.7626 13.8232 10.4697 13.5303L7.46967 10.5303C7.32902 10.3897 7.25 10.1989 7.25 10C7.25 9.80109 7.32902 9.61032 7.46967 9.46967L10.4697 6.46967C10.7626 6.17678 11.2374 6.17678 11.5303 6.46967C11.8232 6.76256 11.8232 7.23744 11.5303 7.53033L9.81066 9.25H15C15.4142 9.25 15.75 9.58579 15.75 10ZM5.75 6C5.75 5.58579 5.41421 5.25 5 5.25C4.58579 5.25 4.25 5.58579 4.25 6L4.25 14C4.25 14.4142 4.58579 14.75 5 14.75C5.41421 14.75 5.75 14.4142 5.75 14L5.75 6Z" fill="#775ACA"/>
</svg>
